HIERARCHY
ROOT Hips
{
	OFFSET -3.958830 18.904000 13.208200
	CHANNELS 6 Xposition Yposition Zposition Zrotation Yrotation Xrotation 
	JOINT LHipJoint
	{
		OFFSET 0.000000 0.000000 0.000000
		CHANNELS 3 Zrotation Yrotation Xrotation
		JOINT LeftUpLeg
		{
			OFFSET 1.800000 -1.400000 0.085000
			CHANNELS 3 Zrotation Yrotation Xrotation
			JOINT LeftLeg
			{
				OFFSET 2.215000 -6.000000 0.000000
				CHANNELS 3 Zrotation Yrotation Xrotation
				JOINT LeftFoot
				{
					OFFSET 2.500000 -6.900000 0.000000
					CHANNELS 3 Zrotation Yrotation Xrotation
					JOINT LeftToeBase
					{
						OFFSET 0.200000 -0.500000 1.950000
						CHANNELS 3 Zrotation Yrotation Xrotation
						End Site
						{
							OFFSET 0.000000 0.000000 0.000000
						}
					}
				}
			}
		}
	}
	JOINT RHipJoint
	{
		OFFSET 0.000000 0.000000 0.000000
		CHANNELS 3 Zrotation Yrotation Xrotation
		JOINT RightUpLeg
		{
			OFFSET -1.800000 -1.400000 0.085000
			CHANNELS 3 Zrotation Yrotation Xrotation
			JOINT RightLeg
			{
				OFFSET -2.215000 -6.000000 0.000000
				CHANNELS 3 Zrotation Yrotation Xrotation
				JOINT RightFoot
				{
					OFFSET -2.500000 -6.900000 0.000000
					CHANNELS 3 Zrotation Yrotation Xrotation
					JOINT RightToeBase
					{
						OFFSET -0.200000 -0.500000 1.950000
						CHANNELS 3 Zrotation Yrotation Xrotation
						End Site
						{
							OFFSET 0.000000 0.000000 0.000000
						}
					}
				}
			}
		}
	}
	JOINT LowerBack
	{
		OFFSET 0.000000 0.000000 0.000000
		CHANNELS 3 Zrotation Yrotation Xrotation
		JOINT Spine
		{
			OFFSET -0.087000 1.940000 -0.288900
			CHANNELS 3 Zrotation Yrotation Xrotation
			JOINT Spine1
			{
				OFFSET 0.000000 1.950000 0.060000
				CHANNELS 3 Zrotation Yrotation Xrotation
				JOINT Neck
				{
					OFFSET 0.000000 0.000000 0.000000
					CHANNELS 3 Zrotation Yrotation Xrotation
					JOINT Neck1
					{
						OFFSET 0.000000 1.600000 0.340000
						CHANNELS 3 Zrotation Yrotation Xrotation
						JOINT Head
						{
							OFFSET 0.000000 1.667000 -0.240000
							CHANNELS 3 Zrotation Yrotation Xrotation
							End Site
							{
								OFFSET 0.000000 0.000000 0.000000
							}
						}
					}
				}
				JOINT LeftShoulder
				{
					OFFSET 0.000000 0.000000 0.000000
					CHANNELS 3 Zrotation Yrotation Xrotation
					JOINT LeftArm
					{
						OFFSET 2.700000 1.550000 -0.730000
						CHANNELS 3 Zrotation Yrotation Xrotation
						JOINT LeftForeArm
						{
							OFFSET 5.450000 0.000000 0.000000
							CHANNELS 3 Zrotation Yrotation Xrotation
							JOINT LeftHand
							{
								OFFSET 3.450000 0.000000 0.000000
								CHANNELS 3 Zrotation Yrotation Xrotation
								JOINT LeftHandIndex1
								{
									OFFSET 0.750000 0.000000 0.000000
									CHANNELS 3 Zrotation Yrotation Xrotation
									End Site
									{
										OFFSET 0.000000 0.000000 0.000000
									}
								}
							}
						}
					}
				}
				JOINT RightShoulder
				{
					OFFSET 0.000000 0.000000 0.000000
					CHANNELS 3 Zrotation Yrotation Xrotation
					JOINT RightArm
					{
						OFFSET -2.700000 1.550000 -0.730000
						CHANNELS 3 Zrotation Yrotation Xrotation
						JOINT RightForeArm
						{
							OFFSET -5.450000 0.000000 0.000000
							CHANNELS 3 Zrotation Yrotation Xrotation
							JOINT RightHand
							{
								OFFSET -3.450000 0.000000 0.000000
								CHANNELS 3 Zrotation Yrotation Xrotation
								JOINT RightHandIndex1
								{
									OFFSET -0.750000 0.000000 0.000000
									CHANNELS 3 Zrotation Yrotation Xrotation
									End Site
									{
										OFFSET 0.000000 0.000000 0.000000
									}
								}
							}
						}
					}
				}
			}
		}
	}
}
MOTION
Frames: 8
Frame Time: 0.016667
4.949710 10.339080 -3.412230 25.050623 53.663556 4.696191 -15.813893 5.520482 8.192535 41.557745 6.026736 -75.410420 -37.571598 12.026159 12.694564 0.961978 9.362917 1.182938 0.159960 0.109560 0.153760 19.300510 -2.749736 6.941910 -40.342157 6.315052 -78.292018 47.879431 7.303028 -10.966298 -0.830704 -4.562738 2.569455 0.042620 0.005850 0.136500 -3.141501 -1.982958 -12.774564 -2.053925 1.654994 77.856726 -8.305747 0.474585 3.766806 3.588199 -3.424349 -13.667294 -12.193765 4.732736 47.185341 -1.913090 1.847220 -4.566450 -30.564769 -26.759869 4.820193 -34.419406 -8.331913 -5.176185 0.681007 -7.339704 -1.004613 -3.700827 2.967342 0.207900 -0.030790 0.139170 0.028530 23.168929 31.910157 8.593629 31.873406 9.983766 -11.766789 -11.609938 25.514628 -3.045458 2.346081 -1.348283 0.004950 0.064070 -0.001100 -0.023600 
5.027260 10.348810 -3.368890 24.992788 53.689513 6.334988 -15.837318 5.508954 8.291955 41.604490 5.869626 -77.147704 -38.304290 11.386742 11.698706 0.988154 9.254354 1.237972 0.151450 0.105990 0.129510 19.274711 -2.734698 6.836376 -38.606798 6.782602 -78.139233 41.018117 8.547741 -15.676678 -0.718883 -4.084214 2.745098 0.039560 0.031020 0.133600 -3.077484 -2.072950 -12.789434 -2.628724 2.117813 77.762702 -7.342140 -0.206470 3.734571 3.302929 -3.624068 -13.782408 -12.556350 4.888557 46.376078 -1.226450 1.629500 -4.382870 -29.932635 -27.128427 4.986956 -35.497965 -8.416003 -5.031113 0.932122 -6.841523 -0.996222 -3.710024 2.977903 0.194890 -0.021900 0.125930 0.041650 23.197801 32.169293 8.659455 32.035250 10.141149 -11.643566 -11.894915 25.008201 -3.104416 2.356734 -1.349768 0.003620 0.072840 0.001140 -0.008500 
5.112280 10.361960 -3.311450 25.242279 53.763706 7.697908 -15.872561 5.565602 8.386621 41.480371 5.569717 -78.645024 -38.958248 11.051620 11.341206 1.016206 9.174564 1.270327 0.169220 0.133490 0.133330 19.226705 -2.808780 6.650581 -35.733798 7.862461 -77.929358 35.066657 8.521053 -18.578427 -0.612488 -3.600080 2.913628 0.049930 0.022870 0.131900 -2.993641 -2.171115 -12.765113 -3.362892 2.972767 77.798495 -6.267451 -0.559688 3.989733 3.052124 -3.373362 -13.827098 -12.138848 4.719119 46.589808 -0.795650 1.516790 -4.362640 -29.174562 -27.498936 5.115630 -36.553507 -8.875853 -4.957264 1.513524 -6.641785 -0.999746 -3.699728 3.002962 0.187830 -0.028080 0.133600 0.053830 22.972956 32.275931 8.700006 32.522507 10.263679 -11.465261 -12.152596 24.316744 -3.158985 2.374564 -1.362533 0.015720 0.067060 -0.017380 -0.000790 
5.212240 10.363120 -3.246620 25.420219 54.014779 8.942453 -15.909558 5.567407 8.495973 41.594756 5.646459 -80.491375 -40.122510 11.208207 11.633120 1.080268 9.270984 1.258060 0.152520 0.112100 0.121830 19.190453 -2.837851 6.503608 -33.744317 8.499906 -77.679534 30.868468 8.331799 -20.774649 -0.520201 -3.288948 3.028477 0.038420 0.033050 0.127900 -2.922133 -2.233343 -12.777325 -3.903777 3.624723 77.489230 -5.609675 -0.998887 4.148410 2.909967 -2.845583 -13.944454 -11.072567 4.120079 46.911695 -0.730200 1.328620 -2.916050 -29.211605 -27.864718 5.404501 -36.770338 -8.280148 -4.669290 1.262827 -4.800411 -0.906044 -3.727801 3.004780 0.163580 -0.014450 0.113270 0.055390 23.279401 32.256627 8.685546 33.180398 10.188344 -11.181126 -11.729920 23.366739 -3.069538 2.403211 -1.379424 0.014680 0.050400 -0.020400 0.003140 
5.303820 10.386950 -3.198090 24.800016 53.428690 9.382456 -15.927668 5.589579 8.601000 41.735461 6.153973 -81.584487 -40.560273 11.464676 12.055968 1.113539 9.411042 1.226607 0.123170 0.079220 0.096060 19.166446 -2.955713 6.322855 -31.367857 9.979101 -77.600010 27.854461 7.652107 -20.945116 -0.409554 -2.937287 3.157618 0.025280 0.061620 0.126050 -2.900661 -2.182825 -12.746222 -4.170734 4.390861 77.740978 -5.339435 -0.956103 4.294887 2.836350 -2.400049 -14.146331 -10.097120 3.711529 46.930632 -0.389900 1.187690 -1.990370 -29.177550 -28.313071 5.578260 -36.483658 -7.976746 -4.646182 0.855034 -4.271596 -0.888673 -3.755557 2.992185 0.148880 0.005830 0.090390 0.054160 23.366236 32.538474 8.742427 32.979242 10.498779 -10.603224 -11.066166 21.646483 -2.807245 2.431309 -1.371409 0.002230 0.053290 -0.004470 0.007750 
5.398030 10.425150 -3.150780 24.321809 52.572328 10.182734 -15.957655 5.608584 8.740685 42.423172 7.106740 -82.385288 -41.747752 11.552943 11.922453 1.172224 9.576554 1.184638 0.126520 0.081200 0.102300 19.133057 -3.080846 6.085066 -28.024642 11.916942 -77.312080 24.707204 7.100602 -21.709647 -0.314694 -2.542126 3.300258 0.024710 0.062840 0.130460 -2.845222 -2.155833 -12.718079 -4.762535 5.570617 77.770877 -4.764220 -0.713354 4.427547 2.708016 -1.943829 -14.248381 -9.148637 3.178677 47.008310 -0.360630 1.087850 -1.773490 -28.826133 -28.630225 5.639649 -36.690527 -8.319066 -4.676246 1.390165 -4.366621 -0.893454 -3.764970 3.002716 0.141220 0.011500 0.089290 0.056360 23.255029 32.767782 8.750319 32.856383 11.029452 -9.832036 -10.535633 19.383029 -2.536193 2.474733 -1.367924 0.006870 0.047650 -0.010790 0.008610 
5.493660 10.453150 -3.110060 24.335210 52.626978 11.312025 -15.996358 5.594711 8.865699 43.103390 7.769975 -83.616971 -43.741937 11.664280 11.791802 1.254772 9.742224 1.147263 0.117670 0.080870 0.080330 19.101717 -3.141716 5.899120 -25.577082 12.857497 -76.869542 21.223353 6.508593 -22.967587 -0.237915 -2.250674 3.407413 0.022760 0.074650 0.131200 -2.794628 -2.161493 -12.722156 -5.294335 6.436709 77.972158 -4.079171 -0.824804 4.532768 2.535724 -1.265028 -14.511998 -7.669682 2.495495 46.526180 0.535660 0.748080 -1.569300 -28.502530 -29.367299 5.883314 -36.905254 -8.458630 -4.452831 2.045903 -3.079926 -0.828293 -3.791781 3.011795 0.128870 0.017570 0.082110 0.062050 23.240728 33.045235 8.878928 32.739594 10.930904 -9.318552 -9.704042 17.997171 -2.284251 2.501266 -1.365669 0.010170 0.041600 -0.009260 0.019560 
5.579300 10.496120 -3.061590 24.288972 53.132397 12.475286 -16.033953 5.597158 8.975349 43.548555 8.264675 -84.988216 -45.698789 11.808235 11.833303 1.337419 9.898242 1.118350 0.115720 0.077730 0.057400 19.067590 -3.253100 5.657950 -22.384790 14.054941 -75.843180 15.318419 5.552512 -25.686717 -0.148943 -1.911687 3.536064 0.022460 0.095950 0.124330 -2.796115 -2.136467 -12.723843 -5.315560 6.854626 78.341208 -3.486115 -1.111841 4.669110 2.301662 -1.107701 -14.898769 -7.350619 2.755450 46.261926 2.373350 0.363960 -0.944690 -28.215530 -30.179232 6.004955 -37.083175 -8.745946 -3.971384 2.082429 -0.694362 -0.715026 -3.824467 3.014490 0.118710 0.017410 0.064840 0.075230 23.443908 33.509664 9.155416 32.158746 10.908011 -8.640906 -8.771204 16.182492 -1.994854 2.541957 -1.362045 0.008070 0.040270 -0.010030 0.032720 
